<?xml version="1.0" encoding="iso-8859-1"?>
<!-- Generator: Adobe Illustrator 19.0.0, SVG Export Plug-In . SVG Version: 6.00 Build 0)  -->
<svg version="1.1" id="Layer_1" xmlns="http://www.w3.org/2000/svg" xmlns:xlink="http://www.w3.org/1999/xlink" x="0px" y="0px"
	 viewBox="0 0 498 498" style="enable-background:new 0 0 498 498;" xml:space="preserve">
<path style="fill:#F9BA48;" d="M270,498c-22.584,0-43.168-10.96-55.776-29.168C202.632,477.384,188.664,482,174,482
	c-13.12,0-25.728-3.736-36.736-10.832C130.944,473.048,124.488,474,118,474c-37.496,0-68-30.504-68-68
	c0-8.44,1.552-16.672,4.632-24.536C46.456,369.992,42,356.16,42,342c0-30.248,20.152-56.768,48.696-65.208
	C95.192,243.376,123.68,218,158,218c6.2,0,12.376,0.864,18.4,2.584C186.968,208.848,202.128,202,218,202
	c15.6,0,30.312,6.48,40.816,17.656C273.504,208.216,291.392,202,310,202c43.32,0,78.864,32.416,83.424,74.84
	C421.904,285.32,442,311.808,442,342c0,18.344-7.32,35.68-20.256,48.432C424.568,398,426,405.904,426,414c0,37.496-30.504,68-68,68
	c-12.44,0-24.336-3.312-34.856-9.656C310.296,488.544,290.976,498,270,498z"/>
<g>
	<path style="fill:#333333;" d="M358,346v16c27.32,0,49.744,21.192,51.8,48h-0.016c0.096,1.328,0.216,2.656,0.216,4
		c0,28.672-23.328,52-52,52c-11.648,0-22.696-3.816-31.944-11.032l-0.048,0.064c-12.632-9.824-20.176-24.976-20.176-41.032h-16
		c0,21.872,10.624,42.544,28.424,55.296l0.12-0.168C330.008,477.528,343.64,482,358,482c37.496,0,68-30.504,68-68
		S395.496,346,358,346z"/>
	<path style="fill:#333333;" d="M209.128,372.344c-7.456,6.832-16.64,11.248-26.48,12.896c-5.352-16.704-16.936-30.984-33-39.448
		l-7.456,14.16C159.344,368.992,170,386.632,170,406c0,22.448-14.328,41.56-34.296,48.832c-2.816,1.016-5.672,1.784-8.544,2.312
		c-0.192,0.032-0.384,0.056-0.576,0.088C123.728,457.72,120.864,458,118,458c-28.672,0-52-23.328-52-52
		c0-7.696,1.704-15.176,5.064-22.256l-14.456-6.864C52.224,386.12,50,395.912,50,406c0,37.496,30.504,68,68,68
		c2.112,0,4.216-0.12,6.32-0.32c1.112-0.104,2.192-0.288,3.288-0.44c0.904-0.128,1.8-0.248,2.704-0.416
		c1.456-0.272,2.888-0.608,4.312-0.968c0.48-0.12,0.952-0.232,1.424-0.368c1.608-0.44,3.184-0.944,4.736-1.504
		c0.16-0.056,0.32-0.096,0.48-0.152l-0.008-0.024C167.312,460.288,186,435.312,186,406c0-1.704-0.224-3.36-0.344-5.04
		c12.728-2.208,24.624-7.968,34.28-16.824L209.128,372.344z"/>
	<path style="fill:#333333;" d="M466,26l19.2,14.4l9.6-12.8L458,0l-36.8,27.6l9.6,12.8L450,26v56c0,22.056-17.944,40-40,40h-32
		c-25.312,0-46.728,16.896-53.64,39.992l-11.456-0.008l-0.296,16l9.392,0.008V178v24.944c-3.928-0.56-7.912-0.944-12-0.944
		c-20.872,0-40.784,7.88-56.352,22.112l-0.2-0.216C236.008,239.784,226,262.424,226,286c0,46.32,37.68,84,84,84v-16
		c-37.496,0-68-30.504-68-68c0-18.584,7.728-36.408,21.176-49.216l0.112,0.12C276.064,224.712,292.648,218,310,218
		c4.104,0,8.104,0.408,12,1.104V250c0,22.056-17.944,40-40,40h-8v16h8c30.872,0,56-25.128,56-56v-25.952
		c22.808,10.28,38.888,32.728,39.864,59.448l15.984-0.576c-1.296-35.536-24.208-64.952-55.848-76.072V178c0-22.056,17.944-40,40-40
		h32c30.872,0,56-25.128,56-56L466,26L466,26z"/>
	<rect x="370" y="314" style="fill:#333333;" width="24" height="16"/>
	<path style="fill:#333333;" d="M285.896,170.392l8.064-13.816c-5.776-3.376-10.672-8.176-14.16-13.896l-13.656,8.328
		C271.008,158.984,277.832,165.688,285.896,170.392z"/>
	<path style="fill:#333333;" d="M496.064,203.44l-15.44,4.168c0.912,3.384,1.376,6.88,1.376,10.392v11.384h16V218
		C498,213.08,497.352,208.176,496.064,203.44z"/>
	<rect x="258" y="52.144" style="fill:#333333;" width="16" height="24"/>
	<path style="fill:#333333;" d="M258,122c0,0.832,0.016,1.664,0.056,2.496l15.984-0.704L274,100.144h-16V122z"/>
	<rect x="408.76" y="162" style="fill:#333333;" width="24" height="16"/>
	<rect x="418" y="314" style="fill:#333333;" width="24" height="16"/>
	<path style="fill:#333333;" d="M461.144,309.088l7.704,14.016c8.176-4.496,15.176-11.024,20.248-18.872l-13.456-8.672
		C472.016,301.176,467,305.856,461.144,309.088z"/>
	<rect x="360.76" y="162" style="fill:#333333;" width="24" height="16"/>
	<path style="fill:#333333;" d="M482.432,179.328c-6.48-6.776-14.592-11.856-23.472-14.696l-4.872,15.232
		c6.336,2.032,12.144,5.672,16.784,10.52L482.432,179.328z"/>
	<path style="fill:#333333;" d="M482,274c0,0.944-0.032,1.88-0.104,2.824l15.968,1.112C497.952,276.632,498,275.32,498,274v-20.616
		h-16V274z"/>
	<polygon style="fill:#333333;" points="258,26 258,28.144 274,28.144 274,26 293.2,40.4 302.8,27.6 266,0 229.2,27.6 238.8,40.4 	
		"/>
	<path style="fill:#333333;" d="M74,170v-16c0-17.648,14.352-32,32-32h48c17.648,0,32,14.352,32,32v120h16V154
		c0-26.472-21.528-48-48-48h-8V90h-16v16h-24c-26.472,0-48,21.528-48,48v16c0,8.824-7.176,16-16,16H26l14.4-19.2l-12.8-9.6L0,194
		l27.6,36.8l12.8-9.6L26,202h16C59.648,202,74,187.648,74,170z"/>
	<rect x="130" y="234" style="fill:#333333;" width="16" height="24"/>
	<rect x="130" y="282" style="fill:#333333;" width="16" height="24"/>
	<rect x="130" y="138" style="fill:#333333;" width="16" height="24"/>
	<rect x="130" y="186" style="fill:#333333;" width="16" height="24"/>
	<rect x="130" y="42" style="fill:#333333;" width="16" height="24"/>
	<polygon style="fill:#333333;" points="138,20 165.2,40.4 174.8,27.6 138,0 101.2,27.6 110.8,40.4 	"/>
</g>
<g>
</g>
<g>
</g>
<g>
</g>
<g>
</g>
<g>
</g>
<g>
</g>
<g>
</g>
<g>
</g>
<g>
</g>
<g>
</g>
<g>
</g>
<g>
</g>
<g>
</g>
<g>
</g>
<g>
</g>
</svg>
